<?xml version="1.0" encoding="utf-8"?>
<!-- Generator: Adobe Illustrator 27.9.0, SVG Export Plug-In . SVG Version: 6.00 Build 0)  -->
<svg version="1.1" id="Layer_1" xmlns="http://www.w3.org/2000/svg" xmlns:xlink="http://www.w3.org/1999/xlink" x="0px" y="0px"
	 viewBox="0 0 380.8 44.4" style="enable-background:new 0 0 380.8 44.4;" xml:space="preserve">
<style type="text/css">
	.st0{enable-background:new    ;}
	.st1{fill:#231815;}
</style>
<g>
	<g class="st0">
		<path class="st1" d="M76,43.7V0.8h31.1v5.1H81.7V19h23.8v5H81.7v14.6h26.4v5.1H76z"/>
		<path class="st1" d="M146.5,28.7l5.7,1.4c-1.2,4.7-3.3,8.2-6.4,10.7s-6.9,3.7-11.4,3.7c-4.6,0-8.4-0.9-11.3-2.8s-5.1-4.6-6.6-8.2
			s-2.3-7.4-2.3-11.5c0-4.5,0.9-8.4,2.6-11.7s4.1-5.9,7.3-7.6S130.7,0,134.5,0c4.3,0,7.9,1.1,10.8,3.3s5,5.3,6.1,9.2l-5.6,1.3
			c-1-3.1-2.4-5.4-4.3-6.8s-4.3-2.1-7.1-2.1c-3.3,0-6.1,0.8-8.3,2.4s-3.8,3.7-4.7,6.4s-1.3,5.4-1.3,8.2c0,3.7,0.5,6.8,1.6,9.6
			s2.7,4.8,5,6.1s4.7,2,7.3,2c3.2,0,5.9-0.9,8.1-2.8S145.8,32.3,146.5,28.7z"/>
		<path class="st1" d="M157.5,22.8c0-7.1,1.9-12.7,5.7-16.7s8.8-6,14.8-6c4,0,7.5,0.9,10.7,2.8s5.6,4.5,7.3,7.9s2.5,7.2,2.5,11.5
			c0,4.4-0.9,8.3-2.6,11.7s-4.2,6-7.5,7.8s-6.7,2.7-10.4,2.7c-4,0-7.7-1-10.8-2.9s-5.6-4.6-7.2-8S157.5,26.6,157.5,22.8z
			 M163.4,22.9c0,5.2,1.4,9.3,4.2,12.2s6.3,4.5,10.5,4.5c4.3,0,7.8-1.5,10.6-4.5s4.1-7.3,4.1-12.8c0-3.5-0.6-6.5-1.8-9.2
			S188,8.5,185.8,7s-4.8-2.2-7.7-2.2c-4,0-7.5,1.4-10.4,4.1S163.4,16.4,163.4,22.9z"/>
		<path class="st1" d="M205.8,43.7V0.8h5.8l22.6,33.7V0.8h5.4v42.9h-5.8L211.3,10v33.8H205.8z"/>
		<path class="st1" d="M247.5,22.8c0-7.1,1.9-12.7,5.7-16.7c3.8-4,8.8-6,14.8-6c4,0,7.5,0.9,10.7,2.8s5.6,4.5,7.3,7.9
			s2.5,7.2,2.5,11.5c0,4.4-0.9,8.3-2.6,11.7s-4.2,6-7.5,7.8s-6.7,2.7-10.4,2.7c-4,0-7.7-1-10.8-2.9c-3.2-2-5.6-4.6-7.2-8
			S247.5,26.6,247.5,22.8z M253.4,22.9c0,5.2,1.4,9.3,4.2,12.2c2.8,3,6.3,4.5,10.5,4.5c4.3,0,7.8-1.5,10.6-4.5s4.1-7.3,4.1-12.8
			c0-3.5-0.6-6.5-1.8-9.2S278,8.5,275.8,7s-4.8-2.2-7.7-2.2c-4,0-7.5,1.4-10.4,4.1C254.8,11.8,253.4,16.4,253.4,22.9z"/>
		<path class="st1" d="M295.7,43.7V0.8h8.6l10.2,30.4c0.9,2.8,1.6,5,2.1,6.4c0.5-1.6,1.2-3.9,2.3-6.9l10.3-29.9h7.6v42.9h-5.5V7.8
			l-12.5,35.9h-5.1L301.2,7.1v36.6H295.7z"/>
		<path class="st1" d="M358,43.7V25.5L341.4,0.8h6.9l8.5,12.9c1.6,2.4,3,4.8,4.4,7.3c1.3-2.2,2.9-4.8,4.7-7.6l8.3-12.6h6.6
			l-17.1,24.8v18.2H358z"/>
	</g>
</g>
<g>
	<g class="st0">
		<path class="st1" d="M0,0.8h12.6l4.5,24l6.6-24h12.6l6.7,24l4.5-24h12.5l-9.5,42.9h-13l-7.5-27l-7.5,27h-13L0,0.8z"/>
	</g>
</g>
</svg>
